<svg width="103" height="88" viewBox="0 0 103 88" fill="none" xmlns="http://www.w3.org/2000/svg">
<path d="M102.938 40.0312C102.942 35.9332 101.93 31.898 99.9916 28.2871C98.0536 24.6762 95.2504 21.6022 91.833 19.3405C88.4155 17.0787 84.4905 15.6998 80.4094 15.3272C76.3283 14.9546 72.2185 15.6 68.4479 17.2054C64.6774 18.8109 61.3639 21.3264 58.8041 24.5267C56.2443 27.727 54.5181 31.5121 53.7801 35.5432C53.0422 39.5743 53.3154 43.7255 54.5754 47.6251C55.8354 51.5247 58.0428 55.0509 61 57.888V85.7812C60.9998 86.1064 61.0827 86.4261 61.2409 86.7101C61.399 86.9942 61.6272 87.233 61.9038 87.404C62.1803 87.5749 62.4959 87.6724 62.8207 87.6869C63.1455 87.7015 63.4686 87.6328 63.7593 87.4873L78.1562 80.2865L92.5532 87.4873C92.8185 87.6186 93.1103 87.6871 93.4062 87.6875C93.9118 87.6875 94.3967 87.4867 94.7542 87.1292C95.1117 86.7717 95.3125 86.2868 95.3125 85.7812V57.888C97.7234 55.5807 99.6419 52.809 100.952 49.74C102.263 46.671 102.938 43.3683 102.938 40.0312ZM57.1875 40.0312C57.1875 35.884 58.4173 31.8299 60.7214 28.3816C63.0255 24.9333 66.3003 22.2457 70.1319 20.6587C73.9634 19.0716 78.1795 18.6563 82.247 19.4654C86.3146 20.2745 90.0509 22.2716 92.9834 25.2041C95.9159 28.1366 97.913 31.8729 98.7221 35.9404C99.5312 40.008 99.1159 44.2241 97.5288 48.0556C95.9418 51.8872 93.2542 55.162 89.8059 57.4661C86.3576 59.7702 82.3035 61 78.1562 61C72.5969 60.9937 67.2671 58.7825 63.3361 54.8514C59.405 50.9204 57.1938 45.5906 57.1875 40.0312ZM91.5 82.6979L79.0093 76.4502C78.7445 76.3176 78.4524 76.2486 78.1562 76.2486C77.8601 76.2486 77.568 76.3176 77.3032 76.4502L64.8125 82.6979V60.8952C68.7931 63.4527 73.4248 64.8124 78.1562 64.8124C82.8877 64.8124 87.5194 63.4527 91.5 60.8952V82.6979ZM49.5625 70.5312C49.5625 71.0368 49.3617 71.5217 49.0042 71.8792C48.6467 72.2367 48.1618 72.4375 47.6562 72.4375H5.71875C4.20204 72.4375 2.74746 71.835 1.67498 70.7625C0.60251 69.69 0 68.2355 0 66.7188V5.71875C0 4.20204 0.60251 2.74746 1.67498 1.67498C2.74746 0.602509 4.20204 0 5.71875 0H89.5938C91.1105 0 92.565 0.602509 93.6375 1.67498C94.71 2.74746 95.3125 4.20204 95.3125 5.71875C95.3125 6.22432 95.1117 6.70918 94.7542 7.06667C94.3967 7.42416 93.9118 7.625 93.4062 7.625C92.9007 7.625 92.4158 7.42416 92.0583 7.06667C91.7008 6.70918 91.5 6.22432 91.5 5.71875C91.5 5.21318 91.2992 4.72832 90.9417 4.37083C90.5842 4.01334 90.0993 3.8125 89.5938 3.8125H5.71875C5.21318 3.8125 4.72832 4.01334 4.37083 4.37083C4.01334 4.72832 3.8125 5.21318 3.8125 5.71875V66.7188C3.8125 67.2243 4.01334 67.7092 4.37083 68.0667C4.72832 68.4242 5.21318 68.625 5.71875 68.625H47.6562C48.1618 68.625 48.6467 68.8258 49.0042 69.1833C49.3617 69.5408 49.5625 70.0257 49.5625 70.5312ZM41.9375 43.8438C41.9375 44.3493 41.7367 44.8342 41.3792 45.1917C41.0217 45.5492 40.5368 45.75 40.0312 45.75H20.9688C20.4632 45.75 19.9783 45.5492 19.6208 45.1917C19.2633 44.8342 19.0625 44.3493 19.0625 43.8438C19.0625 43.3382 19.2633 42.8533 19.6208 42.4958C19.9783 42.1383 20.4632 41.9375 20.9688 41.9375H40.0312C40.5368 41.9375 41.0217 42.1383 41.3792 42.4958C41.7367 42.8533 41.9375 43.3382 41.9375 43.8438ZM41.9375 28.5938C41.9375 29.0993 41.7367 29.5842 41.3792 29.9417C41.0217 30.2992 40.5368 30.5 40.0312 30.5H20.9688C20.4632 30.5 19.9783 30.2992 19.6208 29.9417C19.2633 29.5842 19.0625 29.0993 19.0625 28.5938C19.0625 28.0882 19.2633 27.6033 19.6208 27.2458C19.9783 26.8883 20.4632 26.6875 20.9688 26.6875H40.0312C40.5368 26.6875 41.0217 26.8883 41.3792 27.2458C41.7367 27.6033 41.9375 28.0882 41.9375 28.5938Z" fill="#373737"/>
</svg>
