<svg width="60" height="60" viewBox="0 0 60 60" fill="none" xmlns="http://www.w3.org/2000/svg">
<path d="M19.8046 1.6875C19.5116 1.85156 15.035 4.42969 9.84364 7.41797C2.89442 11.4375 0.351449 12.9609 0.210824 13.207C-0.175894 13.8281 -0.0821443 14.1094 1.45301 16.7695C3.60926 20.543 3.64442 20.6016 4.05457 20.8008C4.60536 21.0586 4.87489 21.0234 5.71864 20.5547C6.33973 20.2148 6.50379 20.168 6.62098 20.2969C6.70301 20.3789 8.24989 23.0273 10.0663 26.1797L13.371 31.9102L13.3593 37.3242V42.75L13.6639 43.1133C13.828 43.3125 14.1679 43.5352 14.4257 43.6055L14.8827 43.7461V46.8398C14.8827 49.2188 14.9179 50.0156 15.0468 50.3086C15.1405 50.5195 16.9686 52.4414 19.1835 54.6328L23.1561 58.5938H29.7186H36.2929L36.7499 58.2539C37.289 57.8555 44.1796 50.9297 44.4608 50.5078C44.6249 50.2617 44.6483 49.7812 44.6483 46.9102V43.5938H44.9999C45.246 43.5938 45.4921 43.4648 45.7968 43.1953L46.2304 42.7969L46.289 37.7109L46.3475 32.6367L49.7929 26.6602C51.6913 23.3672 53.2968 20.6133 53.3788 20.5312C53.496 20.4023 53.66 20.4492 54.3046 20.8125C55.2304 21.3164 55.746 21.3047 56.2616 20.7773C56.7772 20.25 59.9999 14.5312 59.9999 14.1445C59.9999 13.9688 59.9179 13.6641 59.8241 13.4883C59.6366 13.125 59.6483 13.125 54.3163 10.0547C52.2538 8.85938 48.1171 6.48047 45.1288 4.74609C39.8319 1.6875 39.6796 1.61719 39.1757 1.67578C38.8241 1.71094 38.5546 1.82812 38.3788 2.00391C38.2382 2.15625 37.3475 3.63281 36.3983 5.28516C34.6405 8.36719 34.5233 8.66016 34.828 9.31641C34.91 9.49219 35.2968 9.82031 35.7538 10.0898L36.539 10.5586L33.3749 16.0312C31.6405 19.043 30.1757 21.5508 30.1288 21.5977C30.0819 21.6445 28.5585 19.1367 26.7538 16.0078L23.4608 10.3242L24.246 9.85547C25.0663 9.375 25.3124 9.03516 25.3124 8.41406C25.3124 7.875 21.8671 1.92188 21.3866 1.62891C20.9061 1.33594 20.4374 1.34766 19.8046 1.6875ZM21.1288 6.25781C21.621 7.125 22.0311 7.875 22.0311 7.93359C22.0311 8.03906 5.37879 17.6953 5.20301 17.6953C5.14442 17.6953 4.68739 16.9688 4.18348 16.0898C3.43348 14.7891 3.29286 14.4727 3.42176 14.3555C3.50379 14.2852 6.18739 12.7148 9.37489 10.875C12.5624 9.03516 16.2772 6.89062 17.6366 6.10547C18.9843 5.32031 20.121 4.6875 20.1561 4.6875C20.1913 4.6875 20.6249 5.40234 21.1288 6.25781ZM48.2225 9.72656C52.6757 12.3047 56.4022 14.4727 56.5194 14.5547C56.7069 14.6953 56.6483 14.8359 55.8514 16.207C55.3827 17.0391 54.9374 17.7656 54.8671 17.8359C54.7616 17.9414 48.4686 14.3789 38.9413 8.82422L37.8632 8.20312L38.8124 6.55078C39.539 5.29688 39.8085 4.93359 39.9491 4.98047C40.0546 5.02734 43.7811 7.16016 48.2225 9.72656ZM21.7147 12.7852C22.0194 13.3008 22.2655 13.7695 22.2655 13.8281C22.2655 13.9688 10.1952 20.9062 10.1014 20.8125C10.0546 20.7656 9.77332 20.2969 9.46864 19.7695C9.08192 19.1016 8.96473 18.7852 9.05848 18.7266C13.7694 15.9727 20.953 11.8477 21.035 11.8477C21.1054 11.8359 21.41 12.2578 21.7147 12.7852ZM47.0741 16.6875L51.0936 19.0078L50.7772 19.5469C50.4374 20.1445 49.91 21.0117 49.8514 21.082C49.8397 21.1055 49.5116 20.9297 49.1366 20.707C48.7616 20.4844 46.0546 18.9141 43.1249 17.2266C40.1952 15.5391 37.7694 14.1328 37.7343 14.0977C37.6874 14.0508 38.1093 13.2305 38.6366 12.3984L38.9061 11.9648L40.9804 13.1719C42.1288 13.8281 44.871 15.4102 47.0741 16.6875ZM24.3632 17.332C24.6913 17.8945 24.9608 18.4102 24.9608 18.4688C24.9608 18.5508 13.2889 25.3711 12.9022 25.5117C12.8085 25.5586 11.66 23.5547 11.66 23.3438C11.66 23.2148 23.4608 16.2891 23.6952 16.2891C23.7304 16.2891 24.035 16.7578 24.3632 17.332ZM42.4452 19.9922C45.7499 21.9023 48.4686 23.4727 48.4804 23.4844C48.4921 23.4844 48.1991 24.0117 47.8475 24.6445L47.203 25.7812L46.5233 25.4062C41.8593 22.7578 35.0507 18.7852 35.039 18.7148C35.039 18.5742 36.2577 16.5234 36.3515 16.5234C36.3983 16.5234 39.1405 18.082 42.4452 19.9922ZM27.1171 22.1016C27.4804 22.7227 27.7733 23.2617 27.7733 23.3086C27.7733 23.4141 15.9257 30.293 15.7382 30.293C15.6444 30.293 15.2694 29.7656 14.8827 29.1211C14.203 27.9609 14.203 27.9492 14.4491 27.8086C14.5897 27.7266 17.2968 26.168 20.4491 24.3281C23.6132 22.5 26.2499 20.9883 26.3202 20.9883C26.4022 20.9766 26.7538 21.4805 27.1171 22.1016ZM39.7616 24.6445C43.1015 26.5781 45.7968 28.1836 45.7733 28.2188C45.0702 29.5078 44.3554 30.5859 44.2616 30.5508C44.0975 30.4922 32.3202 23.6836 32.2499 23.6133C32.1796 23.543 33.5624 21.0938 33.6444 21.1289C33.6796 21.1406 36.4335 22.7227 39.7616 24.6445ZM36.7733 29.4375L43.4765 33.3047V37.1016V40.8984H42.0233H40.5819L40.4296 40.1719C39.7499 36.6797 37.1249 33.5039 33.785 32.1094C32.2733 31.4766 30.914 31.2539 29.0624 31.3242C27.2225 31.3945 26.2733 31.6289 24.6679 32.3906C21.621 33.8438 19.2069 36.9258 18.621 40.1133L18.4804 40.8984H17.2616H16.0546V37.1133V33.3398L22.8866 29.3906C26.6366 27.2227 29.789 25.4766 29.8827 25.5C29.9765 25.5352 33.0819 27.3047 36.7733 29.4375ZM31.4765 34.2188C34.5468 34.9922 36.9725 37.4531 37.6757 40.4766C37.9218 41.5195 37.9218 43.3242 37.6757 44.3672C36.621 48.9141 31.7811 51.7852 27.246 50.5547C23.2499 49.4766 20.5429 45.4336 21.0936 41.3789C21.5741 37.8516 23.9882 35.1211 27.4335 34.2188C28.6171 33.9141 30.2577 33.9141 31.4765 34.2188ZM18.4569 44.1445C19.1835 48.5039 22.4296 52.0547 26.7186 53.2148C28.1249 53.6016 30.8905 53.6016 32.285 53.2148C34.4999 52.6172 36.7968 51.1172 38.1796 49.3711C39.3397 47.9062 40.2421 45.9258 40.4882 44.2617L40.5702 43.7109H41.2616H41.953V46.4297V49.1602L38.5897 52.5234L35.2147 55.8984H29.7655H24.3163L20.953 52.5352L17.578 49.1602V46.4414V43.7109H17.9882C18.3632 43.7109 18.3983 43.7461 18.4569 44.1445Z" fill="#373737"/>
<path d="M28.992 34.6758C28.6639 34.8164 28.2772 35.3203 28.1835 35.7304C28.0897 36.164 28.371 36.8437 28.746 37.0898C29.1327 37.3359 29.9178 37.3476 30.3045 37.0898C30.6913 36.832 30.9725 36.164 30.8905 35.6836C30.7381 34.9218 29.7069 34.3711 28.992 34.6758Z" fill="#373737"/>
<path d="M27.9257 38.4493C27.1639 38.7423 26.1678 39.6329 25.7577 40.3946C24.6093 42.5275 25.4413 45.1173 27.6327 46.1954C28.3593 46.547 28.4999 46.5821 29.5311 46.5704C30.8788 46.5704 31.4647 46.3478 32.3905 45.4689C33.9257 44.0157 34.16 41.754 32.9764 39.9962C32.4725 39.2696 31.9335 38.836 31.0663 38.4728C30.1991 38.1212 28.8046 38.1095 27.9257 38.4493ZM30.5624 41.4025C31.3007 42.1525 31.1014 43.2071 30.1053 43.7579C29.5428 44.0626 28.91 43.9337 28.3944 43.4181C28.0546 43.0782 28.0077 42.9493 28.0077 42.4454C28.0077 41.9767 28.078 41.7775 28.3241 41.4845C28.7225 41.004 29.0038 40.8868 29.6366 40.9454C30.035 40.9806 30.2343 41.086 30.5624 41.4025Z" fill="#373737"/>
<path d="M22.1953 41.4141C21.8672 41.7422 21.7969 41.8945 21.7969 42.3281C21.7969 42.9141 22.0078 43.2891 22.5 43.5352C23.4609 44.0273 24.4922 43.3594 24.4922 42.2344C24.4922 41.9063 24.3984 41.7188 24.0938 41.4141C23.7539 41.0742 23.6133 41.0156 23.1445 41.0156C22.6758 41.0156 22.5352 41.0742 22.1953 41.4141Z" fill="#373737"/>
<path d="M34.9688 41.4141C34.6641 41.7188 34.5703 41.9063 34.5703 42.2344C34.5703 42.8086 34.8398 43.3125 35.2734 43.5352C36.2344 44.0274 37.2656 43.3711 37.2656 42.2344C37.2656 41.9063 37.1719 41.7188 36.8672 41.4141C36.5273 41.0743 36.3867 41.0157 35.918 41.0157C35.4492 41.0157 35.3086 41.0743 34.9688 41.4141Z" fill="#373737"/>
<path d="M29.0038 47.4492C28.4764 47.6719 28.0663 48.4453 28.1835 49.0078C28.2303 49.1836 28.4178 49.5 28.6171 49.6875C28.91 49.9805 29.0624 50.0391 29.5194 50.0391C30.1991 50.0391 30.621 49.7461 30.8202 49.1602C31.0077 48.5859 30.8671 48.1172 30.3983 47.6953C29.9764 47.332 29.496 47.25 29.0038 47.4492Z" fill="#373737"/>
</svg>
