<svg width="115" height="78" viewBox="0 0 115 78" fill="none" xmlns="http://www.w3.org/2000/svg">
<path d="M57.5944 65.8293C49.6514 65.5174 33.4146 66.3612 23.0775 71.4125C20.4907 72.6766 16.984 71.6598 16.0938 68.9217L1.82981 25.0487C1.32786 23.5048 1.79547 21.8084 3.08675 20.8245C12.7214 13.483 34.1232 1.67351 57.5944 2.49638" stroke="#373737" stroke-width="3"/>
<path d="M57.4056 65.8738C65.3486 65.5619 81.5854 66.4056 91.9225 71.457C94.5093 72.7211 98.016 71.7043 98.9062 68.9661L113.17 25.0931C113.672 23.5492 113.205 21.8528 111.913 20.8689C102.279 13.5275 80.8768 1.71794 57.4056 2.54081" stroke="#373737" stroke-width="3"/>
<path fill-rule="evenodd" clip-rule="evenodd" d="M15.3008 38.2606C14.7864 38.1018 14.4683 37.5479 14.5902 37.0236L18.2645 21.2219C18.3864 20.6976 18.9022 20.4013 19.4166 20.5601V20.5601C19.9309 20.7189 20.2491 21.2727 20.1271 21.7971L16.4529 37.5988C16.331 38.1231 15.8152 38.4194 15.3008 38.2606V38.2606Z" fill="#373737"/>
<path fill-rule="evenodd" clip-rule="evenodd" d="M19.8428 42.8227C19.3284 42.6638 19.0103 42.11 19.1322 41.5857L23.8814 21.1609C24.0033 20.6365 24.5191 20.3402 25.0335 20.499V20.499C25.5479 20.6579 25.866 21.2117 25.7441 21.736L20.9949 42.1608C20.873 42.6852 20.3572 42.9815 19.8428 42.8227V42.8227Z" fill="#373737"/>
<path fill-rule="evenodd" clip-rule="evenodd" d="M74.2793 74.7887C74.2793 75.341 73.8315 75.7887 73.2793 75.7887H59.8521C59.2998 75.7887 58.8521 75.341 58.8521 74.7887V72.3442C58.8521 71.792 59.2998 71.3442 59.8521 71.3442H73.2793C73.8315 71.3442 74.2793 71.792 74.2793 72.3442V74.7887Z" fill="#3D3D3D"/>
<path fill-rule="evenodd" clip-rule="evenodd" d="M74.6668 40.9362L83.0825 36.0872L84.8073 40.0625L77.7961 44.1022L68.4655 75.1029L64.8216 73.6465L74.6668 40.9362Z" fill="#3D3D3D"/>
<path fill-rule="evenodd" clip-rule="evenodd" d="M79.1049 60.4817C78.5699 60.3447 78.221 59.794 78.3255 59.2517L85.6604 21.2155C85.765 20.6732 86.2835 20.3447 86.8185 20.4817L88.646 20.9497C89.181 21.0867 89.53 21.6374 89.4254 22.1797L82.0905 60.2158C81.9859 60.7581 81.4674 61.0867 80.9324 60.9497L79.1049 60.4817Z" fill="#3D3D3D"/>
</svg>
