<svg width="91" height="97" viewBox="0 0 91 97" fill="none" xmlns="http://www.w3.org/2000/svg">
<path d="M39.6454 35.1749C40.1859 35.9439 40.9024 36.5513 41.726 36.9387C42.5496 37.3261 43.4526 37.4804 44.3481 37.3868H47.1227C48.37 37.3868 49.5661 36.8571 50.4481 35.9144C51.33 34.9716 51.8254 33.693 51.8254 32.3597C51.8254 31.0265 51.33 29.7478 50.4481 28.8051C49.5661 27.8623 48.37 27.3327 47.1227 27.3327H44.066C42.8187 27.3327 41.6226 26.8031 40.7407 25.8603C39.8587 24.9176 39.3633 23.6389 39.3633 22.3057C39.3633 20.9724 39.8587 19.6938 40.7407 18.751C41.6226 17.8083 42.8187 17.2787 44.066 17.2787H46.8406C47.7361 17.185 48.6391 17.3393 49.4627 17.7267C50.2863 18.1141 51.0028 18.7215 51.5433 19.4905M45.5003 17.2787V14.7651M45.5003 39.9003V37.3868" stroke="#373737" stroke-width="2" stroke-linecap="round" stroke-linejoin="round"/>
<path d="M86.6486 2.19775H4.35135C3.05274 2.19775 2 3.32309 2 4.71127V49.9545C2 51.3427 3.05274 52.468 4.35135 52.468H86.6486C87.9473 52.468 89 51.3427 89 49.9545V4.71127C89 3.32309 87.9473 2.19775 86.6486 2.19775Z" stroke="#373737" stroke-width="3" stroke-linecap="round" stroke-linejoin="round"/>
<path d="M9.50081 2.19775C9.50081 4.32429 8.71055 6.36373 7.30387 7.86741C5.8972 9.3711 3.98934 10.2159 2 10.2159M89 10.2159C87.0107 10.2159 85.1028 9.3711 83.6961 7.86741C82.2894 6.36373 81.4992 4.32429 81.4992 2.19775M9.50081 52.468C9.50081 51.4151 9.3068 50.3724 8.92985 49.3996C8.55289 48.4268 8.00039 47.5429 7.30387 46.7984C6.60736 46.0538 5.78048 45.4632 4.87044 45.0603C3.9604 44.6573 2.98502 44.4499 2 44.4499M89 44.4499C88.015 44.4499 87.0396 44.6573 86.1296 45.0603C85.2195 45.4632 84.3926 46.0538 83.6961 46.7984C82.9996 47.5429 82.4471 48.4268 82.0702 49.3996C81.6932 50.3724 81.4992 51.4151 81.4992 52.468" stroke="#373737" stroke-linecap="round" stroke-linejoin="round"/>
<path d="M69.0137 32.3597C71.611 32.3597 73.7164 30.109 73.7164 27.3327C73.7164 24.5563 71.611 22.3057 69.0137 22.3057C66.4165 22.3057 64.311 24.5563 64.311 27.3327C64.311 30.109 66.4165 32.3597 69.0137 32.3597Z" stroke="#373737" stroke-linecap="round" stroke-linejoin="round"/>
<path d="M21.9866 32.3597C24.5839 32.3597 26.6893 30.109 26.6893 27.3327C26.6893 24.5563 24.5839 22.3057 21.9866 22.3057C19.3894 22.3057 17.2839 24.5563 17.2839 27.3327C17.2839 30.109 19.3894 32.3597 21.9866 32.3597Z" stroke="#373737" stroke-linecap="round" stroke-linejoin="round"/>
<path d="M81.5228 52.4678H9.47737C9.07896 52.4648 8.68635 52.57 8.3364 52.7736C7.98645 52.9772 7.69064 53.2725 7.47674 53.6318C7.26283 53.9912 7.13785 54.4027 7.11352 54.8278C7.08919 55.2529 7.16631 55.6777 7.33764 56.0622L9.92413 61.8684C10.1147 62.2961 10.4145 62.6576 10.7889 62.911C11.1633 63.1645 11.5971 63.2997 12.0403 63.3011H78.9598C79.403 63.2997 79.8368 63.1645 80.2112 62.911C80.5857 62.6576 80.8854 62.2961 81.076 61.8684L83.6625 56.0622C83.8338 55.6777 83.911 55.2529 83.8866 54.8278C83.8623 54.4027 83.7373 53.9912 83.5234 53.6318C83.3095 53.2725 83.0137 52.9772 82.6637 52.7736C82.3138 52.57 81.9212 52.4648 81.5228 52.4678ZM27.6063 63.3011H63.3703V74.7124H27.6063V63.3011Z" stroke="#373737" stroke-width="3" stroke-linecap="round" stroke-linejoin="round"/>
<path d="M73.4343 74.7127H17.5662C17.0322 74.6946 16.5084 74.8715 16.081 75.2141C15.6536 75.5568 15.3481 76.0448 15.2148 76.5978L10.7708 95.1978H80.2297L75.7151 76.5978C75.5846 76.0575 75.2896 75.5791 74.8767 75.2377C74.4637 74.8964 73.9563 74.7117 73.4343 74.7127Z" stroke="#373737" stroke-width="3" stroke-linecap="round" stroke-linejoin="round"/>
</svg>
