<svg width="90" height="90" viewBox="0 0 90 90" fill="none" xmlns="http://www.w3.org/2000/svg">
<g clip-path="url(#clip0_151_2606)">
<path d="M44.9016 -0.0957031C20.0906 -0.0957031 -0.0983887 20.0889 -0.0983887 44.9043C-0.0983887 69.7197 20.0906 89.9043 44.9016 89.9043C69.7127 89.9043 89.9016 69.7197 89.9016 44.9043C89.9016 20.0889 69.7127 -0.0957031 44.9016 -0.0957031ZM44.9016 86.9069C21.7435 86.9069 2.90442 68.0638 2.90442 44.9043C2.90442 21.7448 21.7435 2.90168 44.9016 2.90168C68.0597 2.90168 86.8988 21.7448 86.8988 44.9043C86.8988 68.0638 68.0597 86.9069 44.9016 86.9069Z" fill="#373737"/>
<circle cx="45" cy="44.9995" r="43.5" stroke="#373737" stroke-width="3"/>
<path d="M46.4064 17.0242C46.8189 17.0242 47.2145 16.8603 47.5062 16.5687C47.7978 16.277 47.9617 15.8814 47.9617 15.4689V9.84389C47.9617 9.43139 47.7978 9.03579 47.5062 8.74411C47.2145 8.45244 46.8189 8.28857 46.4064 8.28857C45.9939 8.28857 45.5983 8.45244 45.3066 8.74411C45.0149 9.03579 44.8511 9.43139 44.8511 9.84389V15.4689C44.8511 16.3295 45.5486 17.0242 46.4064 17.0242ZM15.4689 42.0386H9.84389C9.43139 42.0386 9.03579 42.2024 8.74411 42.4941C8.45244 42.7858 8.28857 43.1814 8.28857 43.5939C8.28857 44.0064 8.45244 44.402 8.74411 44.6937C9.03579 44.9853 9.43139 45.1492 9.84389 45.1492H15.4689C15.6731 45.1492 15.8754 45.109 16.0641 45.0308C16.2528 44.9526 16.4242 44.8381 16.5687 44.6937C16.7131 44.5492 16.8276 44.3778 16.9058 44.1891C16.984 44.0004 17.0242 43.7981 17.0242 43.5939C17.0242 43.3896 16.984 43.1874 16.9058 42.9987C16.8276 42.81 16.7131 42.6385 16.5687 42.4941C16.4242 42.3497 16.2528 42.2351 16.0641 42.157C15.8754 42.0788 15.6731 42.0386 15.4689 42.0386ZM72.9761 43.5939C72.9761 44.4545 73.6736 45.1492 74.5314 45.1492H80.1564C80.3606 45.1492 80.5629 45.109 80.7516 45.0308C80.9403 44.9526 81.1117 44.8381 81.2561 44.6937C81.4006 44.5492 81.5151 44.3778 81.5933 44.1891C81.6715 44.0004 81.7117 43.7981 81.7117 43.5939C81.7117 43.3896 81.6715 43.1874 81.5933 42.9987C81.5151 42.81 81.4006 42.6385 81.2561 42.4941C81.1117 42.3497 80.9403 42.2351 80.7516 42.157C80.5629 42.0788 80.3606 42.0386 80.1564 42.0386H74.5314C74.1189 42.0386 73.7233 42.2024 73.4316 42.4941C73.1399 42.7858 72.9761 43.1814 72.9761 43.5939ZM24.1173 28.4851C24.4249 28.4859 24.7258 28.3952 24.9818 28.2247C25.2379 28.0542 25.4374 27.8114 25.5552 27.5273C25.6731 27.2431 25.7038 26.9304 25.6436 26.6287C25.5834 26.3271 25.4349 26.0501 25.217 25.833L20.7873 21.4004C20.6431 21.2562 20.4719 21.1418 20.2834 21.0638C20.095 20.9857 19.893 20.9455 19.689 20.9455C19.4851 20.9455 19.2831 20.9857 19.0947 21.0638C18.9062 21.1418 18.735 21.2562 18.5908 21.4004C18.4465 21.5447 18.3321 21.7159 18.2541 21.9043C18.176 22.0928 18.1358 22.2948 18.1358 22.4987C18.1358 22.7027 18.176 22.9047 18.2541 23.0931C18.3321 23.2816 18.4465 23.4528 18.5908 23.597L23.0204 28.0267C23.1635 28.1723 23.3343 28.2879 23.5226 28.3666C23.711 28.4453 23.9132 28.4856 24.1173 28.4851ZM67.1936 59.3692C66.9023 59.0779 66.5072 58.9143 66.0953 58.9143C65.6834 58.9143 65.2883 59.0779 64.997 59.3692C64.7057 59.6605 64.5421 60.0555 64.5421 60.4675C64.5421 60.8794 64.7057 61.2745 64.997 61.5658L69.2158 65.7845C69.3596 65.9299 69.5309 66.0454 69.7196 66.1241C69.9084 66.2029 70.1109 66.2435 70.3154 66.2435C70.52 66.2435 70.7225 66.2029 70.9113 66.1241C71.1 66.0454 71.2713 65.9299 71.4151 65.7845C71.5594 65.6403 71.6739 65.4691 71.752 65.2807C71.8301 65.0922 71.8703 64.8902 71.8703 64.6862C71.8703 64.4822 71.8301 64.2802 71.752 64.0918C71.6739 63.9033 71.5594 63.7321 71.4151 63.5879L67.1936 59.3692ZM70.0061 22.1936C70.1503 22.0493 70.2647 21.8781 70.3428 21.6897C70.4208 21.5012 70.461 21.2993 70.461 21.0953C70.461 20.8913 70.4208 20.6894 70.3428 20.5009C70.2647 20.3125 70.1503 20.1412 70.0061 19.997C69.8618 19.8528 69.6906 19.7384 69.5022 19.6603C69.3137 19.5823 69.1118 19.5421 68.9078 19.5421C68.7038 19.5421 68.5018 19.5823 68.3134 19.6603C68.125 19.7384 67.9537 19.8528 67.8095 19.997L63.3798 24.4267C63.2356 24.5711 63.1212 24.7425 63.0432 24.9311C62.9652 25.1197 62.9252 25.3219 62.9253 25.526C62.9254 25.7301 62.9658 25.9322 63.044 26.1207C63.1222 26.3092 63.2368 26.4804 63.3812 26.6247C63.5256 26.7689 63.697 26.8833 63.8857 26.9613C64.0743 27.0392 64.2764 27.0793 64.4805 27.0792C64.6846 27.079 64.8867 27.0387 65.0752 26.9605C65.2637 26.8823 65.435 26.7677 65.5792 26.6233L70.0061 22.1936ZM24.2129 60.7754L19.9942 64.9942C19.85 65.1386 19.7356 65.31 19.6576 65.4986C19.5796 65.6872 19.5396 65.8894 19.5397 66.0935C19.5398 66.2976 19.5801 66.4997 19.6584 66.6882C19.7366 66.8767 19.8512 67.0479 19.9956 67.1922C20.14 67.3364 20.3114 67.4508 20.5 67.5288C20.6887 67.6067 20.8908 67.6468 21.0949 67.6467C21.299 67.6465 21.5011 67.6062 21.6896 67.528C21.8781 67.4498 22.0493 67.3352 22.1936 67.1908L26.4123 62.972C26.5566 62.8276 26.6709 62.6562 26.7489 62.4676C26.8269 62.279 26.867 62.0768 26.8668 61.8727C26.8667 61.6686 26.8264 61.4666 26.7481 61.278C26.6699 61.0895 26.5553 60.9183 26.4109 60.774C26.2665 60.6298 26.0951 60.5154 25.9065 60.4375C25.7179 60.3595 25.5157 60.3194 25.3116 60.3195C25.1075 60.3197 24.9055 60.36 24.717 60.4382C24.5284 60.5164 24.3572 60.631 24.2129 60.7754ZM54.8439 67.5001H35.1564C32.6561 67.4045 30.8392 69.2186 30.8392 71.7189V74.4104C30.8392 76.9361 32.7348 78.9189 35.1564 78.7501H54.8439C57.2626 78.9189 59.1611 76.9361 59.1611 74.4104V71.7189C59.1611 69.2186 57.3442 67.4045 54.8439 67.5001ZM56.1517 74.4104C56.1517 75.1333 55.7411 75.9123 54.8439 76.0079H35.1564C34.2564 75.9123 33.8486 75.1304 33.8486 75.9376V73.2461C33.8486 70.8864 34.3239 70.4083 35.1564 70.3126H54.8439C55.6764 70.4083 56.1517 70.8864 56.1517 71.7189V74.4104ZM45.0001 52.5011C47.0026 52.5011 48.887 51.722 50.3017 50.3045C51.5222 49.0817 52.2838 47.4755 52.458 45.7566C52.6322 44.0377 52.2083 42.3114 51.2579 40.8686L58.7195 33.407C59.0015 33.1251 59.1599 32.7426 59.1599 32.3439C59.1599 31.9451 59.0015 31.5627 58.7195 31.2808C58.4375 30.9988 58.0551 30.8404 57.6564 30.8404C57.2576 30.8404 56.8752 30.9988 56.5933 31.2808L49.1233 38.7508C46.2404 36.9086 42.1679 37.2236 39.6986 39.6958C38.6523 40.7457 37.9402 42.0818 37.6522 43.5358C37.3642 44.9898 37.513 46.4965 38.08 47.866C38.647 49.2355 39.6068 50.4065 40.8383 51.2313C42.0698 52.0562 43.5179 52.498 45.0001 52.5011ZM42.3508 42.3508C43.0567 41.642 43.9989 41.2511 45.0001 41.2511C46.0014 41.2511 46.9436 41.642 47.6523 42.3508C49.1148 43.8133 49.1148 46.1898 47.6523 47.6523C46.2376 49.0698 43.7683 49.0698 42.3508 47.6523C41.6485 46.9489 41.2541 45.9955 41.2541 45.0015C41.2541 44.0076 41.6485 43.0542 42.3508 42.3508Z" fill="#373737"/>
</g>
<defs>
<clipPath id="clip0_151_2606">
<rect width="90" height="90" fill="white"/>
</clipPath>
</defs>
</svg>
