<svg width="122" height="92" viewBox="0 0 122 92" fill="none" xmlns="http://www.w3.org/2000/svg">
<path d="M32.9706 0.354749C31.0553 0.874955 29.2818 1.89172 27.7449 3.31047C26.066 4.89473 22.9211 9.93128 20.5093 14.9678L19.0432 17.9708L18.192 17.2378C16.4422 15.6772 15.6619 15.5117 10.9327 15.559C6.15629 15.6299 4.92672 15.8664 3.10599 17.0723C0.173919 19.0349 -0.819202 22.6527 0.717772 25.703C1.87641 27.9493 3.98089 29.3917 6.84202 29.7937C9.93961 30.2666 9.7268 30.0775 8.85191 31.4962C8.18983 32.5603 8.09525 32.9622 8.02431 34.6174C7.90608 36.9584 9.32482 60.3204 9.63222 61.5027C9.96326 62.6849 11.1219 64.3638 11.9731 64.8604L12.7062 65.286V67.6978C12.7062 71.8122 13.4628 73.5383 15.8274 74.8625L17.0806 75.5482H24.0561H31.0316L32.143 74.8862C34.3184 73.6093 35.1696 71.7649 35.1696 68.289V66.2082H48.0802H60.9908L61.4401 66.7757C61.7711 67.2013 62.7642 67.6506 64.9396 68.3599L67.9899 69.3767L68.7466 71.1028L69.5033 72.829L67.9426 75.6665C67.0914 77.2507 66.382 78.8113 66.382 79.166C66.382 80.0882 72.6245 86.3071 73.5467 86.3071C73.9014 86.3071 75.4856 85.6686 77.0463 84.8647L79.9074 83.4459L81.5862 84.1316L83.2887 84.841L84.3764 88.0805C85.0149 89.9958 85.6297 91.4855 85.8898 91.651C86.5046 92.1003 95.1825 92.1239 95.7737 91.6746C95.9865 91.5328 96.6722 89.9249 97.287 88.1041L98.422 84.841L100.124 84.1316L101.827 83.4223L104.617 84.8647C106.178 85.6923 107.691 86.3071 108.093 86.3071C108.661 86.3071 109.323 85.7868 111.947 83.1858C113.697 81.4597 115.187 79.7808 115.258 79.4734C115.352 79.0478 114.998 78.0547 113.863 75.8083L112.326 72.7107L113.082 71.0792L113.863 69.424L117.126 68.3126C118.97 67.6978 120.507 67.0358 120.696 66.7757C121.169 66.1372 121.146 57.743 120.649 57.0573C120.413 56.7026 119.254 56.206 117.055 55.473L113.792 54.3853L113.059 52.6591L112.326 50.9567L113.815 48.0955C114.643 46.5349 115.329 44.9979 115.329 44.6905C115.329 44.0521 109.157 37.6677 108.33 37.4549C108.022 37.384 107.313 37.5732 106.603 37.9278L105.397 38.5426V36.1071C105.397 33.5061 105.185 32.5839 104.31 31.1652C103.648 30.1484 103.624 30.1484 106.272 29.9119C110.292 29.5336 113.082 26.9326 113.366 23.2911C113.437 22.5108 113.366 21.4231 113.224 20.8793C112.586 18.5147 110.269 16.3393 107.928 15.8664C107.266 15.7245 104.83 15.5826 102.56 15.559C98.7294 15.5117 98.3274 15.559 97.2397 16.0555C96.6013 16.3393 95.6791 16.9541 95.2062 17.4033L94.3549 18.2309L93.0071 15.4407C91.0445 11.421 87.545 5.60411 86.1972 4.13807C84.6602 2.45922 82.7685 1.22964 80.6404 0.543915L78.8906 6.26876e-05L56.4981 0.0237084C38.7165 0.0473542 33.8691 0.118291 32.9706 0.354749ZM80.7586 4.80015C81.4444 5.15484 82.4375 5.84056 82.9577 6.31348C84.5656 7.75587 88.1834 13.9747 90.9027 19.9807L92.6052 23.764L56.7582 23.835C37.0376 23.8586 20.864 23.835 20.793 23.764C20.462 23.433 24.6236 14.9205 27.3665 10.3096C29.1163 7.35389 30.5351 5.67504 31.8829 4.94202C33.5617 4.04349 33.6799 4.04349 56.9237 4.09078L79.5054 4.13807L80.7586 4.80015ZM15.2599 19.4842C17.5772 20.6901 17.4353 22.9364 14.8579 25.7976L13.7702 27.0035L10.1051 26.6015C5.94348 26.1523 5.04494 25.8212 4.26463 24.4498C3.3188 22.8182 3.67349 21.163 5.18682 20.028C6.25088 19.2241 6.36911 19.2004 10.7672 19.1768C13.652 19.1531 14.787 19.2477 15.2599 19.4842ZM107.005 19.5315C108.968 19.7679 110.292 21.8487 109.654 23.7404C109.37 24.6626 108.046 25.9395 107.218 26.1286C106.674 26.2468 100.408 26.9562 99.8171 26.9562C99.6516 26.9562 98.9186 26.2468 98.1855 25.372C96.956 23.8823 96.885 23.7168 96.885 22.4872C96.885 21.4704 97.0033 21.0211 97.4289 20.5246C98.3984 19.3186 98.9659 19.2004 102.631 19.295C104.475 19.3659 106.438 19.4605 107.005 19.5315ZM96.3412 28.6114C96.9087 29.2499 98.2565 30.4321 99.3205 31.2361C102.158 33.3642 102.134 33.3406 101.945 36.8874C101.874 38.519 101.756 39.9141 101.709 40.0087C101.638 40.1033 100.905 39.8668 100.054 39.5358L98.4929 38.8737L97.4525 35.7051C96.7904 33.6007 96.2466 32.3711 95.9156 32.0873C95.4899 31.7327 94.8515 31.6854 90.9736 31.6854C87.0011 31.6854 86.4809 31.7327 85.9843 32.1346C85.5824 32.442 85.1095 33.4824 84.3764 35.7288L83.336 38.8973L81.6335 39.654L79.931 40.387L76.8334 38.8027L73.7358 37.2421L72.9555 37.6677C72.5299 37.9042 70.8038 39.4175 69.1249 41.0254C66.1219 43.8866 66.0746 43.9575 66.2165 44.7851L66.3584 45.66L53.0695 45.5891L39.7805 45.5181L38.3618 44.8088C37.3687 44.3358 36.4229 43.5555 35.1696 42.2314C32.0484 38.8973 30.3695 37.3603 28.4069 36.0362C24.931 33.7189 20.864 32.0637 16.4422 31.2125L15.0944 30.9524L16.7969 29.1789L18.4994 27.4291H56.8764H95.2771L96.3412 28.6114ZM17.2934 35.2086C19.7526 35.7997 22.0935 36.6746 24.0561 37.7623C25.664 38.6372 28.2887 40.4579 28.3124 40.6944C28.336 41.1437 25.7586 43.39 24.6 43.9339C23.394 44.5014 22.9448 44.5723 20.864 44.5487C18.3102 44.5487 17.2225 44.2886 13.8412 42.9171C12.3278 42.326 11.8549 42.0186 11.7367 41.5693C11.6421 41.2855 11.5712 39.5358 11.5475 37.6914L11.5239 34.381L13.4392 34.5702C14.4796 34.6647 16.2294 34.9485 17.2934 35.2086ZM94.2131 38.188C94.6387 39.6067 95.1116 41.0254 95.2535 41.3092C95.4426 41.6402 96.1284 42.0186 97.3343 42.4442C98.3274 42.7989 99.6279 43.3427 100.243 43.6501C100.858 43.9575 101.591 44.2176 101.851 44.2176C102.134 44.2176 103.553 43.5792 105.019 42.7989L107.691 41.3801L109.441 43.1536C110.41 44.1467 111.191 45.0216 111.191 45.1162C111.191 45.2107 110.576 46.4876 109.819 47.93C109.086 49.396 108.471 50.7202 108.471 50.8621C108.471 51.0039 108.873 52.0444 109.394 53.1794C109.89 54.2907 110.363 55.4966 110.458 55.8513C110.741 57.1045 111.522 57.6248 114.454 58.5233L117.22 59.3745V61.9283V64.4584L114.265 65.3806C112.657 65.8771 111.167 66.4446 111.002 66.6574C110.836 66.8702 110.552 67.5087 110.387 68.0525C110.221 68.62 109.725 69.8969 109.275 70.8664C108.826 71.8595 108.471 72.8053 108.471 72.9945C108.471 73.1837 109.134 74.5551 109.914 76.0684L111.38 78.7877L109.559 80.6084L107.762 82.4055L104.901 80.9395C102.536 79.7335 101.945 79.5207 101.425 79.6862C100.881 79.8518 98.4929 80.8449 96.0101 81.9326C95.3244 82.24 95.2062 82.4764 94.3549 85.1721L93.4328 88.0805L90.8317 88.1514L88.2307 88.2224L87.3085 85.2193C86.3627 82.0981 86.1499 81.8144 84.7075 81.4597C84.3291 81.3887 83.0523 80.8685 81.8936 80.3247L79.8128 79.3552L76.8807 80.8922L73.9723 82.4055L72.1516 80.6084L70.3545 78.8113L71.8205 75.8793L73.2866 72.9708L72.7664 71.7649C72.4826 71.1265 71.9151 69.7787 71.5368 68.8092C71.1348 67.8397 70.6619 66.8466 70.4491 66.6101C70.2599 66.3973 68.8412 65.8062 67.2806 65.3333L64.4904 64.482V61.9283V59.3745L67.2806 58.4996C70.3072 57.5538 70.9929 57.1045 71.2058 55.9459C71.3003 55.5203 71.7732 54.2907 72.2935 53.2266C72.8137 52.1626 73.2393 51.1222 73.2393 50.933C73.2393 50.7438 72.5772 49.3251 71.7732 47.7645L70.2836 44.9506L72.0806 43.1536L73.8777 41.3328L76.597 42.7752C78.0867 43.5792 79.5527 44.2176 79.8364 44.2176C80.1202 44.2176 80.9005 43.9339 81.5862 43.6028C82.2483 43.2481 83.3833 42.7752 84.0927 42.5388C86.2444 41.7821 86.3863 41.6402 87.2139 38.9683C88.4199 35.0194 87.9706 35.445 90.9027 35.516L93.4091 35.5869L94.2131 38.188ZM33.1597 45.1398C35.5243 47.4098 38.1726 48.8285 40.7264 49.1832C41.6486 49.3015 48.2694 49.4197 55.5286 49.4197H68.6993L68.9831 50.1527C69.2432 50.7911 69.2195 51.0512 68.7466 52.2099C68.4628 52.9429 68.0609 53.7941 67.8717 54.0779L67.5643 54.6217H56.6873C49.1206 54.6217 45.6447 54.6927 45.2427 54.8818C44.0604 55.4257 43.8949 57.3174 44.9353 58.0504C45.3609 58.3578 46.7324 58.4051 53.0931 58.4051H60.7307L60.6597 60.4622L60.5888 62.5431H37.7234C14.9052 62.5431 14.8579 62.5431 14.1958 62.0465C13.8412 61.7864 13.4155 61.2898 13.2737 60.9825C13.1081 60.6751 12.8717 58.074 12.7298 55.2129C12.5879 52.3518 12.3988 49.1359 12.3278 48.0482L12.186 46.0856L13.4392 46.6058C20.391 49.4197 25.6877 48.8049 29.5892 44.8088C30.3932 43.9812 31.0789 43.2954 31.1262 43.2954C31.1735 43.2718 32.0957 44.0994 33.1597 45.1398ZM31.3863 67.9816C31.3863 70.2989 30.9607 71.3156 29.8257 71.7886C29.14 72.0723 27.9577 72.1196 23.3468 72.0723C17.7427 72.0014 17.6954 72.0014 17.1043 71.4339C16.5131 70.89 16.4895 70.7245 16.4895 68.5254V66.2082H23.9379H31.3863V67.9816Z" fill="#373737"/>
<path d="M87.0721 49.94C82.4375 50.8149 78.3468 55.0238 77.4955 59.8239C76.3132 66.3501 81.0897 72.8054 87.7814 73.7513C95.5136 74.8626 102.465 67.9108 101.354 60.1786C100.385 53.2268 93.953 48.6395 87.0721 49.94ZM90.7135 53.4396C92.747 53.7943 94.2131 54.5746 95.6555 56.1352C97.358 58.0032 97.9018 59.5875 97.7836 62.1885C97.6654 64.6477 97.1215 65.9482 95.5609 67.627C93.953 69.3295 92.3214 70.0625 89.815 70.1808C88.1598 70.2517 87.545 70.1808 86.4336 69.7551C84.7548 69.1403 82.6503 67.2723 81.87 65.7354C79.8128 61.6683 81.4207 56.3953 85.3459 54.3381C86.1499 53.9361 87.8997 53.3923 89.0819 53.2268C89.1529 53.2031 89.8859 53.3213 90.7135 53.4396Z" fill="#373737"/>
</svg>
