<svg width="60" height="56" viewBox="0 0 60 56" fill="none" xmlns="http://www.w3.org/2000/svg">
<g clip-path="url(#clip0_120_2554)">
<path d="M30.7031 0.152931C29.1797 0.546041 27.9375 1.60526 27.4102 2.94839L27.1641 3.59265L26.4961 3.65817C24.2695 3.87656 23.6016 3.97484 22.5 4.21508C20.168 4.71738 18.2227 5.39441 16.2891 6.35535C8.82422 10.079 3.90235 16.9147 3.03516 24.7551C2.8711 26.3276 2.95313 29.3305 3.22266 30.7937C3.75001 33.7093 4.82813 36.5048 6.35157 38.8743L6.87891 39.7042L6.00001 39.8899C4.54688 40.1956 3.48047 40.7525 2.33204 41.8227C1.51172 42.5761 1.23047 42.9256 0.832037 43.679C-0.257807 45.7647 -0.257807 47.9814 0.843756 50.1108C1.7461 51.8688 3.83204 53.4413 5.8711 53.889C6.83204 54.0965 8.66016 54.0965 9.55079 53.889C11.2969 53.474 13.125 52.3056 14.0742 50.9953L14.4727 50.4602L28.4414 50.4493H42.4102L42.7031 50.9953C44.0391 53.485 46.8047 55.3413 49.8047 55.789C53.707 56.3787 57.8203 54.5114 59.6367 51.3229C59.9648 50.7441 60 50.6021 60 49.6412C60 48.8768 59.9648 48.5929 59.8594 48.6038C59.7773 48.6038 57.7266 48.8113 55.3008 49.0625L50.8945 49.532L50.1914 48.2107L49.4766 46.9004L50.1797 45.59C50.5664 44.8693 50.8945 44.2687 50.9063 44.2578C50.918 44.2469 58.5469 45.0222 59.5078 45.1423L60 45.2078V44.1158C60 43.0348 60 43.0238 59.5078 42.2485C58.2656 40.3048 56.2031 38.8307 53.8828 38.2082C53.3672 38.0772 52.5117 37.9571 51.7266 37.9243L50.4258 37.8588L50.9766 36.7013C52.0547 34.4518 52.8164 31.7874 53.0859 29.3851C53.1445 28.7627 53.2031 28.173 53.2031 28.0638C53.2031 27.9437 53.3203 27.8454 53.5195 27.7908C54.7852 27.496 56.25 26.2839 56.7305 25.1482C57.2227 23.9471 57.1523 21.3591 56.543 18.6182C55.8281 15.4297 54.2461 12.1646 52.1016 9.45655C48.5039 4.92486 42.9141 1.60526 37.0078 0.502362C34.4883 0.0218937 31.7813 -0.120063 30.7031 0.152931ZM34.6875 1.96561C35.2383 2.03113 36.1641 2.17308 36.7383 2.2932C37.9453 2.52252 40.4297 3.24322 40.4297 3.36334C40.4297 3.40701 40.1133 3.73461 39.7266 4.09496L39.0234 4.73922L39.6914 5.37257L40.3594 6.00591L41.3789 5.06682C42.5273 4.0076 42.3047 4.02944 43.6289 4.7829L44.3203 5.16509L43.1133 6.28983L41.8945 7.42548L42.5977 8.08066L43.3008 8.73585L44.6484 7.48008L45.9961 6.22431L46.793 6.83581C47.2266 7.16341 47.5781 7.46916 47.5781 7.51284C47.5781 7.55652 46.957 8.16802 46.207 8.86689L44.8242 10.1554L45.5039 10.7778L46.1719 11.4112L47.5898 10.1008L48.9961 8.79045L49.418 9.22724C49.6406 9.46747 49.9688 9.82782 50.1328 10.0244L50.4258 10.3847L49.0898 11.6405L47.7539 12.8854L48.4336 13.5078L49.1016 14.1411L50.3203 13.0055L51.5391 11.8698L51.832 12.2957C51.9844 12.5359 52.2305 12.94 52.3711 13.202L52.6406 13.6825L51.6328 14.6216L50.625 15.5716L51.3281 16.2159L52.0313 16.8601L52.7813 16.1722L53.5313 15.4843L53.7891 16.1176C54.1875 17.1004 54.6914 19.0441 54.8906 20.3108C55.0898 21.5665 55.1836 22.9315 55.0781 22.9315C55.043 22.9315 49.9336 18.1923 43.7109 12.394L32.4023 1.85641H33.0469C33.4102 1.85641 34.1484 1.91101 34.6875 1.96561ZM42.3867 13.6716C49.043 19.874 54.4922 25.0063 54.4922 25.0827C54.4922 25.3666 53.25 26.0982 52.7461 26.0982C52.5117 26.0982 29.0625 4.25875 29.0625 4.04036C29.0742 3.61449 29.9063 2.4024 30.1992 2.4024C30.2461 2.4024 35.7422 7.48008 42.3867 13.6716ZM37.7695 14.8291L47.8359 24.2091L47.2031 24.6678C46.2656 25.3775 45.1172 25.858 43.9219 26.0546C43.5 26.1201 43.4766 26.1092 43.4766 25.8471C43.4766 25.7051 43.3945 25.1591 43.3008 24.635C42.1055 18.2797 36.5742 13.4313 29.6836 12.7216C28.9805 12.6451 28.9453 12.6342 28.9453 12.3612C28.9453 11.8261 28.4883 10.4502 28.0664 9.64219C27.3516 8.29906 25.8516 6.7703 24.5859 6.08235C24.3398 5.95131 24.1406 5.80936 24.1406 5.76568C24.1406 5.73292 24.4922 5.6674 24.9375 5.62372C25.3711 5.58004 25.7813 5.53636 25.8398 5.51453C25.9102 5.49269 26.3555 5.47085 26.8359 5.47085L27.7148 5.45993L37.7695 14.8291ZM22.125 6.89041C24.6328 7.93871 26.4258 9.83874 26.8828 11.9026L27.0352 12.6124L26.6133 12.6888C26.3789 12.7216 25.793 12.8089 25.3125 12.8854C23.0273 13.2239 20.332 14.3595 18.457 15.7791L17.8242 16.2705L17.0625 15.7791C15.1055 14.5015 12.5039 14.0101 10.0195 14.4578C9.57422 14.5452 9.17579 14.5888 9.15235 14.5779C9.07032 14.5015 10.2891 13.1147 11.3672 12.0773C13.7813 9.74047 16.5938 7.98239 19.7461 6.86857C21.0117 6.42086 21 6.42086 22.125 6.89041ZM29.707 14.5342C34.9453 15.1348 39.3047 18.509 40.9688 23.2482C43.3359 30.0075 38.9531 37.4002 31.4531 39.2784C30.3867 39.5514 30.1055 39.5732 28.0664 39.5732C26.0273 39.5732 25.7461 39.5514 24.6914 39.2784C19.4531 37.968 15.5859 34.0041 14.6953 29.0247C14.3086 26.8517 14.6367 24.22 15.5625 22.189C17.9531 16.9693 23.7188 13.8463 29.707 14.5342ZM12.9961 16.1722C14.2617 16.3578 14.918 16.6199 16.3125 17.4826C16.3711 17.5153 16.0781 17.974 15.6445 18.4981C14.1328 20.3763 12.9492 23.1499 12.7148 25.4212C12.6328 26.131 12.5977 26.2074 12.3633 26.2074C11.8359 26.2074 10.2305 26.6551 9.41016 27.0264C7.91016 27.7144 6.33985 29.0684 5.4961 30.4115L5.22657 30.8374L5.13282 30.4661C4.94532 29.5707 4.78126 27.1684 4.86329 26.0982C5.06251 23.0953 5.71876 20.5729 6.93751 18.105L7.41797 17.155L8.26172 16.8165C9.93751 16.1722 11.5547 15.9538 12.9961 16.1722ZM51.2461 28.042C51.0469 30.9575 50.3438 33.6875 49.1719 36.0571C48.6914 37.0289 48.5039 37.1599 46.793 37.6295C45.4219 38.0008 43.7227 38.0881 42.6094 37.8479C41.7305 37.6513 40.5586 37.1599 40.0547 36.7668L39.7383 36.5266L40.3242 35.8168C42 33.7748 42.9844 31.5472 43.3945 28.8609L43.5352 27.9109L44.4492 27.769C45.9961 27.5287 47.9063 26.6551 48.8086 25.7707L49.1484 25.4431L50.2148 26.4258L51.293 27.4195L51.2461 28.042ZM12.7148 28.7954C12.9844 31.1432 14.1328 33.7748 15.7617 35.7622L16.4883 36.6467L16.0898 37.1272C15.0352 38.4157 14.4141 40.1956 14.4023 42.0302C14.4023 43.1549 14.3906 43.1767 14.2031 42.9147C13.2539 41.6043 11.1563 40.2175 9.66797 39.9226C9.38672 39.868 9.17579 39.6496 8.61329 38.8525C7.73438 37.6077 6.71485 35.6967 6.26954 34.4737L5.92969 33.5564L6.42188 32.5955C7.30079 30.9029 8.48438 29.5816 9.78516 28.8719C10.5 28.4787 11.7656 28.0747 12.2578 28.0638H12.6328L12.7148 28.7954ZM18.8906 38.6341C20.9414 40.0646 23.4727 41.0146 26.0625 41.3204L27.1055 41.4405L27.3047 42.3468L27.4922 43.2422H21.9609H16.4297L16.3594 42.9911C16.1484 42.2376 16.4063 40.4359 16.875 39.4531C17.2734 38.6014 17.8242 37.8697 17.9766 37.9898C18.0469 38.0444 18.457 38.3284 18.8906 38.6341ZM39.2109 38.4266C40.6758 39.3439 42.2109 39.7698 44.0625 39.7916L45.293 39.8025L44.4609 40.5669C44.0039 40.9928 43.3594 41.7572 43.0078 42.2922L42.3867 43.2422H35.9648H29.543L29.3672 42.6635C29.2734 42.3577 29.1797 41.9537 29.1563 41.779L29.1211 41.4514L30.1758 41.3094C32.8828 40.9491 35.4609 39.9336 37.5 38.4485C37.9219 38.1427 38.2852 37.8916 38.3086 37.8916C38.332 37.8916 38.7305 38.1318 39.2109 38.4266ZM53.25 39.9226C54.1758 40.141 55.3477 40.7089 56.1445 41.3094C56.8008 41.8008 57.8555 42.9802 57.75 43.0894C57.7148 43.1221 56.0039 42.9692 53.9648 42.7618C51.9141 42.5434 50.1328 42.3687 49.9922 42.3687C49.7813 42.3687 49.5469 42.7399 48.5273 44.64L47.3203 46.9004L48.5156 49.1389C49.1719 50.3728 49.7344 51.3993 49.7578 51.4211C49.7813 51.443 51.5742 51.2792 53.7305 51.0499C55.8984 50.8315 57.7031 50.6677 57.7266 50.7004C57.832 50.7987 56.8125 51.9453 56.1563 52.4476C55.3711 53.0591 54.1289 53.6597 53.1445 53.889C52.2539 54.0965 50.4375 54.0965 49.4648 53.889C47.8711 53.5396 46.3242 52.6005 45.2344 51.3338C44.6719 50.6786 44.0391 49.5866 43.8867 48.9969L43.8047 48.7021H28.5352H13.2539L12.8672 49.3791C11.7539 51.3665 9.30469 52.5459 6.97266 52.2292C5.95313 52.0982 4.64063 51.5412 3.90235 50.9516C2.70704 49.9797 1.99219 48.4619 1.99219 46.9004C1.99219 42.0957 8.14454 39.6933 11.7891 43.0784C12.1992 43.4606 12.668 44.0285 12.8789 44.4216L13.2422 45.0986H28.5117H43.7695L43.9922 44.5199C44.332 43.6026 45.0938 42.4888 45.8789 41.779C47.8594 39.9772 50.5781 39.2893 53.25 39.9226Z" fill="white"/>
<path d="M26.0976 16.3797C25.1015 16.5435 23.8828 16.9257 22.9218 17.3734C20.3906 18.5528 18.3633 20.5947 17.2851 23.0626C16.6992 24.4167 16.4883 25.4868 16.5 27.1357C16.5 28.2932 16.5586 28.7518 16.8047 29.6472C17.3437 31.6019 18.375 33.2944 19.8633 34.6703C21.3164 36.0353 23.3203 37.0945 25.3711 37.575C26.8711 37.9353 29.2617 37.9353 30.75 37.575C33.457 36.9198 35.6836 35.5657 37.2773 33.6002C40.8281 29.2213 40.3359 23.0626 36.1289 19.3171C34.6172 17.974 33.1757 17.1878 31.2304 16.6527C30.3398 16.4016 29.9062 16.347 28.4179 16.3142C27.457 16.3033 26.4023 16.3251 26.0976 16.3797ZM29.707 18.1815C34.582 18.9786 38.0156 23.0299 37.6992 27.6052C37.5234 29.9748 36.539 31.9294 34.664 33.5892C32.6836 35.3364 30.4687 36.1008 27.6562 36.0025C25.0195 35.9151 23.1445 35.1398 21.2109 33.3163C20.3086 32.4754 19.9804 32.0823 19.5468 31.2852C18.8437 30.0185 18.5156 28.9374 18.4336 27.6052C18.1758 23.685 20.6015 20.1361 24.5273 18.6729C26.1797 18.0614 27.914 17.8976 29.707 18.1815Z" fill="white"/>
<path d="M23.2031 22.5493L22.5703 23.1499L23.6484 24.1654L24.7266 25.1701L24.4805 25.7706C24.1406 26.5787 24.1523 27.6379 24.4805 28.3477L24.7383 28.8718L23.6484 29.8874L22.5586 30.9029L23.2383 31.5253L23.9062 32.1587L24.9961 31.1432L26.0859 30.1276L26.6719 30.3788C27.457 30.7173 28.6523 30.7173 29.4609 30.3788L30.0469 30.1276L31.1367 31.1432L32.2266 32.1587L32.8945 31.5253L33.5742 30.9029L32.4844 29.8874L31.3945 28.8718L31.6406 28.3586C31.9688 27.6598 31.9805 26.5678 31.6523 25.7706L31.4062 25.1701L32.4844 24.1654L33.5742 23.1499L32.8945 22.5275L32.2266 21.8941L31.1367 22.9097L30.0586 23.9143L29.3906 23.6959C28.4883 23.4011 27.457 23.412 26.707 23.7177L26.1094 23.947L25.043 22.9533C24.4453 22.3964 23.9297 21.9487 23.8945 21.9487C23.8711 21.9487 23.5547 22.2217 23.2031 22.5493ZM29.1328 25.5632C30.0117 26.0655 30.2344 27.3322 29.5898 28.1293C28.207 29.8219 25.3594 28.1948 26.3555 26.2839C26.8711 25.2902 28.1133 24.9735 29.1328 25.5632Z" fill="white"/>
<path d="M7.06641 43.3625C5.78906 43.5918 4.78125 44.3234 4.23047 45.4154C3.79687 46.289 3.79687 47.512 4.23047 48.3746C4.59375 49.0844 5.35547 49.816 6.09375 50.1546C6.86719 50.504 8.61328 50.504 9.39844 50.1436C10.1602 49.7942 10.8633 49.1172 11.2266 48.3965C11.4961 47.8723 11.543 47.6212 11.543 46.8459C11.543 45.9941 11.5078 45.8631 11.1445 45.2298C10.7461 44.5418 10.125 43.974 9.43359 43.6464C9.12891 43.5044 7.81641 43.2205 7.62891 43.2533C7.59375 43.2642 7.33594 43.3079 7.06641 43.3625ZM8.47266 45.2516C9 45.4591 9.44531 45.9505 9.59766 46.4637C10.0547 48.0689 7.91016 49.3574 6.5625 48.2982C6.07031 47.916 5.85938 47.5011 5.85938 46.9005C5.85938 45.601 7.20703 44.7493 8.47266 45.2516Z" fill="white"/>
</g>
<defs>
<clipPath id="clip0_120_2554">
<rect width="60" height="55.9091" fill="white"/>
</clipPath>
</defs>
</svg>
