<svg width="63" height="55" viewBox="0 0 63 55" fill="none" xmlns="http://www.w3.org/2000/svg">
<path fill-rule="evenodd" clip-rule="evenodd" d="M58.4896 4.65503H56.4896H2.36345H0.363449V6.65503V43.8931V45.8931H2.36345H11.3845V41.8931H4.36345V8.65503H54.4896V41.8931H36.7561H35.9092L35.3198 42.5013L29.7084 48.2921L24.0971 42.5013L21.2245 45.2849L28.2722 52.5579L29.7084 54.0402L31.1447 52.5579L37.603 45.8931H56.4896H58.4896V43.8931V6.65503V4.65503Z" fill="white"/>
<path d="M7.43762 2H61V40.9836" stroke="white" stroke-opacity="0.5" stroke-width="4"/>
<path d="M40.958 25.5646C40.958 31.7501 36.1149 36.6562 30.2721 36.6562C24.4294 36.6562 19.5863 31.7501 19.5863 25.5646C19.5863 19.3792 24.4294 14.4731 30.2721 14.4731C36.1149 14.4731 40.958 19.3792 40.958 25.5646Z" stroke="white" stroke-opacity="0.5" stroke-width="4"/>
<path d="M24.3522 24.8858L29.0882 29.9285L36.1923 22.3645" stroke="white" stroke-width="4"/>
</svg>
