<svg width="60" height="56" viewBox="0 0 60 56" fill="none" xmlns="http://www.w3.org/2000/svg">
<path d="M28.1364 0L26.1978 4.10594C25.1944 4.16274 24.1959 4.27997 23.2089 4.45686L20.2435 0.904606L17.0473 1.91272L17.0314 6.4322C15.6775 7.07781 14.38 7.85835 13.1543 8.76934L8.63721 6.88261L6.32458 9.16457L8.63708 13.2335C7.89929 14.2092 7.25093 15.2406 6.69879 16.3167L1.73934 16.4422L0.732366 19.4292L4.73656 22.1654C4.54487 23.2738 4.45126 24.3936 4.44591 25.5145L0 27.6043L0.465657 30.7059L5.34551 31.5921C5.63723 32.5396 5.99896 33.4674 6.42814 34.3688L3.21222 38.0724L5.00722 40.7233L10.0064 39.6378C10.3228 39.9832 10.6506 40.3193 10.9894 40.6457C11.6972 41.3248 12.451 41.9612 13.2464 42.551L12.2752 47.1961L15.1968 48.7616L19.0137 45.6785C20.1059 46.0857 21.2304 46.4141 22.3772 46.6606L23.6231 51.1985L26.9862 51.4534L29.0082 47.1737C30.4054 47.0957 31.7981 46.902 33.1675 46.5903L36.3797 50.0428L39.5121 48.8797L39.4204 47.1294L32.1087 41.9861C29.9801 42.4853 27.7728 42.6189 25.6049 42.3921C21.5605 41.9691 17.6737 40.2747 14.6235 37.3484C7.65163 30.6591 7.85096 20.0184 15.0614 13.551C18.5538 10.4183 23.0461 8.82912 27.5435 8.78411C32.3312 8.73614 37.1233 10.4378 40.7181 13.8869C46.5688 19.5008 47.3662 27.9458 43.2097 34.3392L47.2817 37.2045C47.7879 36.468 48.2452 35.7035 48.6509 34.9152L53.5743 34.7896L54.5813 31.8026L50.6052 29.085C50.797 27.9676 50.8941 26.838 50.8956 25.7065L55.3138 23.624L54.8482 20.5224L49.9726 19.6362C49.5623 18.326 49.0186 17.055 48.3486 15.8404L51.2539 12.1074L49.3115 9.54846L44.5276 10.8371C44.4675 10.778 44.4091 10.7181 44.3483 10.6598C43.5953 9.93706 42.7894 9.26338 41.9363 8.64362L42.8518 4.25706L39.9299 2.6916L36.2999 5.62354C35.1248 5.18482 33.9178 4.84335 32.6937 4.58967L31.5037 0.254745L28.1364 0ZM20.7291 18.137C19.4116 18.151 18.1057 18.4511 16.9081 18.9972L22.6677 23.0516C24.4096 24.2776 24.9036 26.6075 23.5669 28.2431C22.2298 29.8795 19.6623 30.1255 17.8952 28.882L12.1397 24.8314C11.5504 27.7609 12.6664 30.8648 15.3996 32.7885C17.8508 34.5133 20.9966 34.8362 23.7065 33.9332L24.3153 33.73L24.8286 34.0919L42.0475 46.2105L42.5608 46.5723L42.517 47.1705C42.3085 49.835 43.4837 52.5597 45.936 54.2856C48.6693 56.2092 52.1955 56.3687 55.0785 55.0536L49.3233 51.0032C47.5562 49.7595 47.1221 47.3987 48.4597 45.7637C49.7971 44.1284 52.3491 43.9435 54.0915 45.1691L59.847 49.2199C60.435 46.2915 59.3236 43.186 56.5911 41.2627C54.1313 39.5308 51.0102 39.1877 48.3163 40.0773L47.7113 40.2767L47.198 39.9148L29.9791 27.7964L29.4658 27.4345L29.5096 26.8402C29.7071 24.195 28.5098 21.5002 26.0507 19.7691C24.453 18.6447 22.5835 18.1175 20.7293 18.1371L20.7291 18.137ZM26.2777 28.8006L47.1501 43.4927L45.7131 45.2539L24.8368 30.5582L26.2777 28.8006Z" fill="#F8F8F8"/>
</svg>
