<svg width="61" height="40" viewBox="0 0 61 40" fill="none" xmlns="http://www.w3.org/2000/svg">
<path d="M30.8014 30.1376C32.6365 30.1376 34.4304 29.5258 35.9563 28.3795C37.4822 27.2332 38.6714 25.6039 39.3737 23.6976C40.076 21.7914 40.2597 19.6938 39.9017 17.6701C39.5437 15.6465 38.66 13.7876 37.3624 12.3287C36.0647 10.8697 34.4114 9.8761 32.6115 9.47357C30.8117 9.07104 28.946 9.27763 27.2506 10.0672C25.5551 10.8568 24.106 12.1939 23.0865 13.9095C22.0669 15.6251 21.5227 17.6421 21.5227 19.7054C21.5227 22.4722 22.5003 25.1257 24.2404 27.0821C25.9805 29.0385 28.3405 30.1376 30.8014 30.1376ZM30.8014 11.5914C32.2287 11.5914 33.624 12.0673 34.8108 12.9588C35.9975 13.8504 36.9225 15.1177 37.4687 16.6003C38.015 18.0829 38.1579 19.7144 37.8794 21.2883C37.601 22.8623 36.9136 24.3081 35.9044 25.4428C34.8951 26.5776 33.6092 27.3504 32.2093 27.6634C30.8094 27.9765 29.3583 27.8158 28.0397 27.2017C26.721 26.5876 25.5939 25.5476 24.8009 24.2133C24.0079 22.8789 23.5847 21.3102 23.5847 19.7054C23.5847 17.5534 24.345 15.4896 25.6984 13.9679C27.0518 12.4463 28.8874 11.5914 30.8014 11.5914ZM59.6682 0H1.93452C1.6611 0 1.39887 0.122124 1.20553 0.339504C1.01218 0.556885 0.903564 0.851717 0.903564 1.15914V38.2516C0.903564 38.559 1.01218 38.8539 1.20553 39.0712C1.39887 39.2886 1.6611 39.4107 1.93452 39.4107H59.6682C59.9416 39.4107 60.2039 39.2886 60.3972 39.0712C60.5906 38.8539 60.6992 38.559 60.6992 38.2516V1.15914C60.6992 0.851717 60.5906 0.556885 60.3972 0.339504C60.2039 0.122124 59.9416 0 59.6682 0ZM2.96548 13.6952C5.42608 13.044 7.67648 11.6344 9.46394 9.6247C11.2514 7.615 12.5051 5.08481 13.0843 2.31828H48.5184C49.0976 5.08481 50.3513 7.615 52.1388 9.6247C53.9263 11.6344 56.1767 13.044 58.6373 13.6952V25.7155C56.1767 26.3667 53.9263 27.7763 52.1388 29.786C50.3513 31.7957 49.0976 34.3259 48.5184 37.0925H13.0843C12.5051 34.3259 11.2514 31.7957 9.46394 29.786C7.67648 27.7763 5.42608 26.3667 2.96548 25.7155V13.6952ZM58.6373 11.3016C56.7325 10.6994 54.9973 9.55695 53.5982 7.98388C52.1991 6.4108 51.183 4.45988 50.6473 2.31828H58.6373V11.3016ZM10.9554 2.31828C10.4198 4.45988 9.40368 6.4108 8.00456 7.98388C6.60544 9.55695 4.87026 10.6994 2.96548 11.3016V2.31828H10.9554ZM2.96548 28.1091C4.87026 28.7114 6.60544 29.8538 8.00456 31.4269C9.40368 32.9999 10.4198 34.9509 10.9554 37.0925H2.96548V28.1091ZM50.6473 37.0925C51.183 34.9509 52.1991 32.9999 53.5982 31.4269C54.9973 29.8538 56.7325 28.7114 58.6373 28.1091V37.0925H50.6473Z" fill="#F8F8F8"/>
<line x1="60.1352" y1="1.95144" x2="1.4942" y2="38.6021" stroke="white" stroke-width="3"/>
</svg>
