<svg width="177" height="69" viewBox="0 0 177 69" fill="none" xmlns="http://www.w3.org/2000/svg">
<path d="M88.805 11.055V17.18H71.585V11.055H88.805ZM75.96 2.06V26.035H67.385V2.06H75.96ZM91.57 2.095V9.9H69.66V2.095H91.57ZM89.19 3.635H91.605V6.155V25.965H83.59V3.635H89.19ZM100.945 2.06V26.035H92.3704V2.06H100.945ZM116.73 18.23V26.035H94.8554V18.23H116.73ZM116.835 2.06V26.035H108.26V2.06H116.835ZM141.78 2.095V9.9H117.595V2.095H141.78ZM133.73 2.095V26.07H125.19V2.095H133.73ZM166.801 2.095V9.9H144.891V2.095H166.801ZM167.081 2.165V26.07H158.471V2.165H167.081ZM166.976 18.23V26.035H145.101V18.23H166.976ZM151.086 2.06V26.035H142.546V2.06H151.086Z" fill="white"/>
<path d="M87.965 45.09V51.215H71.55V45.09H87.965ZM91.57 36.095V43.9H69.66V36.095H91.57ZM75.96 36.06V60.035H67.385V36.06H75.96ZM91.535 36.2V51.285H82.96V36.2H91.535ZM112.916 45.09V51.215H96.5012V45.09H112.916ZM108.821 49.535C108.821 49.4183 108.821 49.1383 108.821 48.695C108.821 48.2283 108.81 47.6683 108.786 47.015C108.786 46.3617 108.786 45.65 108.786 44.88C108.786 44.0867 108.786 43.2817 108.786 42.465C108.763 40.575 108.751 38.4633 108.751 36.13H114.281H116.696V37.355V47.155L108.786 50.025V49.78C108.786 49.7333 108.786 49.6867 108.786 49.64C108.81 49.5933 108.821 49.5583 108.821 49.535ZM116.661 49.465V60.035H108.786V47.505L116.661 49.465ZM116.521 36.095V43.9H94.6112V36.095H116.521ZM100.911 36.06V60.035H92.3362V36.06H100.911ZM141.713 36.095V43.9H119.803V36.095H141.713ZM141.993 36.165V60.07H133.383V36.165H141.993ZM141.888 52.23V60.035H120.013V52.23H141.888ZM125.998 36.06V60.035H117.458V36.06H125.998ZM164.136 45.09V51.215H146.916V45.09H164.136ZM166.936 36.095V43.9H145.026V36.095H166.936ZM151.326 36.06V60.035H142.751V36.06H151.326ZM176.277 36.06V60.035H167.702V36.06H176.277Z" fill="#E10909"/>
<path fill-rule="evenodd" clip-rule="evenodd" d="M59 2H33.5395L16 26H59V2ZM56 3.84617H35.2763L21 23.5898H56V3.84617Z" fill="white"/>
<path d="M36.4775 4.76904H54.59V22.5478H24L36.4775 4.76904Z" fill="white"/>
<path fill-rule="evenodd" clip-rule="evenodd" d="M6 36H59V60H0L6 36ZM15 38.88H18V57.12H15V38.88ZM28 38.88H25V57.12H28V38.88ZM35 38.88H38V57.12H35V38.88ZM48 38.88H45V57.12H48V38.88Z" fill="white"/>
<rect x="62" y="2" width="2" height="58" fill="white"/>
</svg>
