<svg width="24" height="24" viewBox="0 0 24 24" fill="none" xmlns="http://www.w3.org/2000/svg">
<path d="M19 12C19 10.05 18.3207 8.39567 16.962 7.037C15.6033 5.67833 13.9493 4.99933 12 5V3C13.25 3 14.421 3.23767 15.513 3.713C16.605 4.18833 17.555 4.82967 18.363 5.637C19.171 6.44567 19.8127 7.39567 20.288 8.487C20.7633 9.57833 21.0007 10.7493 21 12H19ZM15 12C15 11.1667 14.7083 10.4583 14.125 9.875C13.5417 9.29167 12.8333 9 12 9V7C13.3833 7 14.5627 7.48767 15.538 8.463C16.5133 9.43833 17.0007 10.6173 17 12H15ZM19.95 21C17.8 21 15.704 20.525 13.662 19.575C11.62 18.625 9.81167 17.3583 8.237 15.775C6.66233 14.1917 5.39567 12.379 4.437 10.337C3.47833 8.295 2.99933 6.19933 3 4.05V3.525C3 3.34167 3.01667 3.16667 3.05 3H8.9L9.825 8.025L6.975 10.9C7.675 12.1 8.55433 13.225 9.613 14.275C10.6717 15.325 11.834 16.2333 13.1 17L16 14.1L21 15.1V20.95C20.8333 20.9667 20.6583 20.9793 20.475 20.988C20.2917 20.9967 20.1167 21.0007 19.95 21ZM6.025 9L7.675 7.35L7.25 5H5.025C5.10833 5.68333 5.225 6.35833 5.375 7.025C5.525 7.69167 5.74167 8.35 6.025 9ZM14.975 17.95C15.625 18.2333 16.2877 18.4583 16.963 18.625C17.6383 18.7917 18.3173 18.9 19 18.95V16.75L16.65 16.275L14.975 17.95Z" fill="white"/>
</svg>
