<svg width="63" height="75" viewBox="0 0 63 75" fill="none" xmlns="http://www.w3.org/2000/svg">
<path d="M17.6966 5.80315L17.9482 11.0859H21.3023H24.6565L24.9081 5.80315L25.1596 0.604211H21.3023H17.4451L17.6966 5.80315Z" fill="white"/>
<path d="M31.7839 7.73146V11.5049H35.1381H38.4922V7.73146V3.95804H35.1381H31.7839V7.73146Z" fill="white"/>
<path d="M3.27344 18.8001C3.27344 19.2194 4.95051 27.7725 6.963 37.835C11.6588 61.6494 10.2333 60.1401 28.4296 60.1401C44.3618 60.1401 45.2842 59.7208 47.0451 51.3354L48.1352 46.3042L52.831 46.0526C58.7847 45.7172 60.6294 43.9563 62.2227 36.9964C63.2289 32.8876 63.2289 31.3782 62.3904 29.4496C61.2164 26.6824 58.1138 24.9215 54.4243 24.9215C52.831 24.9215 52.0764 24.5861 52.2441 23.8314C52.4956 23.3283 52.831 21.8189 53.0826 20.4772L53.5857 18.2132H28.4296C14.5937 18.2132 3.27344 18.4647 3.27344 18.8001ZM44.5295 25.3407C44.8649 25.76 41.5946 43.7886 39.7498 51.587C39.3306 53.4318 39.1629 53.5156 28.178 53.2641L17.1093 53.0125L14.9291 42.2792C13.6713 36.4094 12.4974 30.1204 12.1619 28.2756L11.6588 24.9215H27.8426C36.815 24.9215 44.2779 25.0892 44.5295 25.3407ZM55.6821 35.1516C54.8435 39.0089 54.6758 39.1766 51.7409 39.1766C49.4769 39.1766 49.2253 38.9251 49.7284 37.248C49.98 36.2417 50.2316 34.7324 50.2316 33.8938C50.2316 32.8037 50.9024 32.4683 53.2503 32.4683C56.1852 32.4683 56.1852 32.5522 55.6821 35.1516Z" fill="white"/>
<path d="M0.254959 68.0226C0.00339761 68.6934 -0.0804562 70.2867 0.0872514 71.6283L0.338813 73.9762L28.2621 74.2278L56.1016 74.3955V70.6221V66.8487H28.4298C5.28619 66.8487 0.590374 67.0164 0.254959 68.0226Z" fill="white"/>
</svg>
