<svg width="65" height="65" viewBox="0 0 65 65" fill="none" xmlns="http://www.w3.org/2000/svg">
<path d="M35.5694 32.9501C34.9676 33.5503 34.3055 33.7004 33.5833 33.4003C32.8611 33.1002 32.5 32.53 32.5 31.6898V3.60112C32.5 2.58081 32.8467 1.72494 33.54 1.03353C34.2333 0.342117 35.0904 -0.00238828 36.1111 1.24606e-05H61.3889C62.412 1.24606e-05 63.2703 0.345718 63.9636 1.03713C64.6569 1.72854 65.0024 2.58321 65 3.60112V21.6067C65 22.627 64.6533 23.4828 63.96 24.1742C63.2667 24.8657 62.4096 25.2102 61.3889 25.2078H43.3333L35.5694 32.9501ZM39.7222 18.0055H57.7778V7.20223H39.7222V18.0055ZM61.2083 65C53.4444 65 45.8768 63.2739 38.5053 59.8216C31.1338 56.3693 24.6037 51.8079 18.915 46.1374C13.2263 40.4669 8.65222 33.9549 5.19278 26.6014C1.73333 19.2479 0.00240741 11.7012 0 3.96123C0 2.8809 0.361111 1.98062 1.08333 1.2604C1.80556 0.540178 2.70833 0.180068 3.79167 0.180068H18.4167C19.2593 0.180068 20.0116 0.45015 20.6736 0.990316C21.3356 1.53048 21.7268 2.22069 21.8472 3.06095L24.1944 15.6648C24.3148 16.5051 24.2992 17.2709 24.1475 17.9623C23.9958 18.6537 23.6504 19.2683 23.1111 19.8061L14.4444 28.6288C16.9722 32.9501 20.1319 37.0014 23.9236 40.7826C27.7153 44.5637 31.8981 47.8347 36.4722 50.5956L44.9583 42.133C45.5 41.5928 46.2078 41.1883 47.0817 40.9194C47.9555 40.6505 48.8126 40.5749 49.6528 40.6925L62.1111 43.2133C62.9537 43.3934 63.6458 43.7991 64.1875 44.4305C64.7292 45.0619 65 45.7965 65 46.6343V61.2188C65 62.2992 64.6389 63.1994 63.9167 63.9197C63.1944 64.6399 62.2917 65 61.2083 65ZM11.0139 21.7867L16.9722 15.8449L15.3472 7.38228H7.40278C7.7037 9.84304 8.125 12.2738 8.66667 14.6745C9.20833 17.0753 9.99074 19.446 11.0139 21.7867ZM57.7778 57.6177V49.6953L49.2917 47.8947L43.3333 53.8366C45.6805 54.8569 48.0579 55.6971 50.4653 56.3573C52.8727 57.0175 55.3102 57.4377 57.7778 57.6177Z" fill="white"/>
</svg>
