<svg width="72" height="72" viewBox="0 0 72 72" fill="none" xmlns="http://www.w3.org/2000/svg">
<path d="M0.209171 37.802C0.619582 36.8409 1.03 35.8799 1.85082 34.9188C0.619589 32.9967 -0.201238 31.7152 0.619584 28.832C1.44041 26.2692 3.90287 23.386 7.18616 20.8231L14.1632 17.9399L10.8799 12.1735C9.23822 9.61068 9.23822 6.40712 11.2903 4.16463C13.3423 1.60178 17.036 0 20.7297 0C24.8338 0 28.1171 1.92214 30.1692 4.80534C30.1692 4.80534 33.4525 4.16463 37.5566 5.1257L42.8919 8.96997C42.8919 8.96997 49.8689 10.5717 51.1001 15.3771C52.3314 20.1824 52.7418 26.2692 54.3834 28.5117C56.0251 30.7542 64.6437 39.0834 69.5686 43.5684C73.2623 47.0923 72.4415 50.9366 69.1582 53.8198L48.6377 69.8376C45.3544 72.4004 37.5566 73.3615 32.2212 68.8765C26.4755 64.3915 30.1692 58.3048 30.1692 58.3048C28.5275 57.3437 24.013 54.4605 19.4985 53.4994C14.984 52.5384 8.00698 50.6162 4.31328 46.772C1.02999 43.5684 -0.611651 41.0056 0.209171 37.802ZM38.3774 64.3915C40.019 65.673 42.4815 65.673 44.1232 64.3915L61.3604 50.9366C62.1812 50.2959 62.5917 49.6552 62.5917 48.6941C62.5917 47.733 62.1812 47.0923 61.3604 46.4516L58.4875 44.2091L38.3774 59.9066C37.5566 60.5473 37.1462 61.188 37.1462 62.1491C37.1462 63.1101 37.5566 63.7508 38.3774 64.3915ZM11.2903 32.6763C13.3423 32.6763 14.1632 31.0745 15.8048 29.7931C17.4464 28.5117 21.1401 28.1913 24.013 29.1524C26.8859 30.1135 28.1171 32.356 28.1171 34.5984C28.1171 37.802 25.2442 40.6852 21.1401 40.6852C18.2673 40.6852 17.4464 40.3648 15.8048 39.7241C13.3423 38.4427 12.5215 37.1613 10.8799 37.1613C9.23822 37.1613 8.00699 37.802 8.00699 39.7241C8.00699 41.6463 10.4694 43.8888 12.9319 45.1702C15.3944 46.4516 17.4464 46.772 19.9089 47.0923C22.3714 47.4127 24.013 47.4127 27.2963 49.0145C30.1692 50.2959 33.0421 51.8977 34.6837 53.1791L53.5626 38.4427C49.8689 34.9188 46.5856 31.0745 46.1752 29.1524L43.3023 16.6585C42.8919 15.3771 41.6607 15.0567 40.8399 15.0567C39.6086 15.0567 38.3774 15.6974 37.967 16.3382L36.3253 12.1735C35.9149 11.2125 34.6837 10.5717 33.8629 10.5717C32.2212 10.5717 30.5796 11.5328 30.99 13.1346L33.0421 20.8231C30.5796 16.9789 26.8859 12.1735 24.4234 8.64961C23.6026 7.68854 22.7818 6.72748 20.7297 6.72748C18.6777 6.72748 17.036 8.64961 17.8569 10.2514C18.6777 11.5328 26.0651 21.4638 29.3484 25.6285C29.7588 25.9488 29.3484 26.2692 28.5275 25.9488C27.2963 25.3081 24.4234 23.7063 21.5505 23.7063C16.6256 23.386 14.1631 24.9878 12.9319 25.6285C11.2903 26.5895 9.64862 28.1913 8.41739 29.7931C7.59657 31.3949 9.23822 32.6763 11.2903 32.6763ZM12.1111 34.9188C13.7527 34.9188 14.984 35.2392 15.8048 36.2002C16.6256 37.1613 18.2673 38.4427 20.3193 38.4427C23.1922 38.4427 24.8338 36.8409 24.8338 34.9188C24.8338 32.9967 23.1922 31.7152 20.3193 31.7152C18.2673 31.7152 16.6256 32.9967 15.8048 33.9577C14.984 34.9188 13.7527 34.9188 12.1111 34.9188Z" fill="white"/>
</svg>
