<svg width="83" height="77" viewBox="0 0 83 77" fill="none" xmlns="http://www.w3.org/2000/svg">
<path d="M59.3013 0.960201L54.6567 2.38201L60.0596 7.87968C66.126 13.9461 67.0739 17.4532 62.8084 17.4532C60.9127 17.4532 58.7326 16.0314 55.2255 12.5243L50.2965 7.6901L49.2539 10.4389C46.3154 18.0219 47.7373 24.1831 53.5193 29.7756L56.8368 32.9983V51.861C56.8368 63.5199 57.216 71.3872 57.8795 72.6195C58.4482 73.6621 60.344 75.0839 62.1449 75.8422C64.8938 76.9797 65.8416 76.9797 68.5905 75.8422C70.3914 75.0839 72.2872 73.6621 72.8559 72.6195C73.5194 71.3872 73.8986 63.5199 73.8986 51.861V32.9983L76.837 30.1547C83.8512 23.6144 84.9887 14.6096 79.6806 7.31095C75.036 0.960201 67.1687 -1.50427 59.3013 0.960201ZM71.0549 7.50053C75.036 9.58585 76.7422 12.5243 76.7422 17.548C76.7422 22.3821 73.8038 27.2163 70.1071 28.3538C68.3061 28.9225 68.2113 30.1547 68.0218 49.4913L67.7374 70.0602H65.3677H62.998L62.7137 49.6809L62.5241 29.3016L59.6805 27.6902C58.1639 26.8372 56.2681 24.8466 55.415 23.2352C53.8984 20.202 54.7515 19.2542 56.8368 21.7186C57.6899 22.7613 59.87 23.1404 64.5146 23.1404H71.0549V16.7897C71.0549 11.5764 70.6758 10.0598 68.9696 8.25883C66.5999 5.69957 67.1687 5.50999 71.0549 7.50053Z" fill="white"/>
<path d="M31.2443 16.316C29.5381 17.2639 26.5049 20.3919 24.704 23.1407C21.2916 28.2592 21.2916 28.2592 12.8555 30.3446C1.67063 33.1882 0.533179 34.3256 0.154029 43.9939C-0.22512 51.0082 -0.0355453 51.6717 2.23935 53.8518C3.56638 55.1789 5.6517 56.3163 6.97872 56.3163C8.49532 56.3163 9.53798 56.9798 9.91713 58.2121C10.865 61.1505 15.8887 64.8472 19.0167 64.8472C23.0926 64.8472 27.0736 62.4775 28.5902 59.1599L29.8225 56.3163H41.3865C47.7373 56.3163 53.1402 55.9372 53.4245 55.558C53.7089 55.0841 53.6141 53.8518 53.3298 52.7144C52.8558 50.7238 52.3819 50.6291 41.2918 50.6291H29.7277L26.9789 47.7854C22.2395 42.8565 15.8887 43.2356 10.9598 48.6385C7.54745 52.43 6.50478 51.2926 6.78915 44.1835L7.07351 37.8328L16.3627 35.4631L25.6518 33.0934L29.2538 27.3114C33.0453 21.245 34.6566 20.2971 41.0074 20.2971C44.2302 20.2971 44.5145 20.1075 44.5145 17.4535C44.5145 14.6099 44.4197 14.6099 39.4908 14.6099C36.4576 14.6099 33.2348 15.2734 31.2443 16.316ZM22.5239 51.7665C25.9362 55.1789 21.4812 60.5817 17.121 58.3068C13.4243 56.3163 15.1304 50.6291 19.3959 50.6291C20.5333 50.6291 21.8603 51.103 22.5239 51.7665Z" fill="white"/>
</svg>
